#N canvas 641 134 461 504 10;
#X obj 126 413 dac~;
#X obj 125 356 bp~ 100 10;
#X floatatom 67 255 5 0 0 0 - - -;
#X obj 67 286 pwm~ 440 50;
#X obj 244 251 snapshot~;
#X obj 245 214 osc~ 0.1;
#X obj 153 327 +;
#X floatatom 151 281 5 0 0 0 - - -;
#X obj 243 294 *;
#X floatatom 323 264 5 0 0 0 - - -;
#X msg 325 234 5;
#X msg 147 238 100;
#X floatatom 242 185 5 0 0 0 - - -;
#X msg 241 146 1;
#X floatatom 242 329 5 0 0 0 - - -;
#X msg 322 130 bang;
#X floatatom 213 368 5 0 0 0 - - -;
#X obj 318 174 metro 20;
#X text 41 26 this replicates the basics of the reactable demo. it's
a square wave into a band pass filter \, with the filter resonant frequency
being modified by a LFO.;
#X connect 1 0 0 0;
#X connect 1 0 0 1;
#X connect 2 0 3 0;
#X connect 3 0 1 0;
#X connect 4 0 8 0;
#X connect 5 0 4 0;
#X connect 6 0 1 1;
#X connect 6 0 16 0;
#X connect 7 0 6 0;
#X connect 8 0 6 1;
#X connect 8 0 14 0;
#X connect 9 0 8 1;
#X connect 10 0 9 0;
#X connect 11 0 7 0;
#X connect 12 0 5 0;
#X connect 13 0 12 0;
#X connect 15 0 4 0;
#X connect 15 0 17 0;
#X connect 17 0 4 0;
#X connect 17 0 6 0;
