#N canvas 641 134 461 504 10;
#X obj 126 413 dac~;
#X floatatom 67 245 5 0 0 0 - - -;
#X obj 67 286 pwm~ 440 50;
#X floatatom 151 281 5 0 0 0 - - -;
#X floatatom 319 223 5 0 0 0 - - -;
#X floatatom 242 185 5 0 0 0 - - -;
#X text 41 26 this replicates the basics of the reactable demo. it's
a square wave into a band pass filter \, with the filter resonant frequency
being modified by a LFO.;
#X obj 125 356 vcf~ 100 10;
#X obj 153 327 +~;
#X obj 240 223 osc~ 0.5;
#X obj 239 291 *~;
#X msg 147 238 440;
#X msg 241 146 2;
#X msg 321 193 50;
#X connect 1 0 2 0;
#X connect 2 0 7 0;
#X connect 3 0 8 0;
#X connect 4 0 10 1;
#X connect 5 0 9 0;
#X connect 7 0 0 0;
#X connect 7 0 0 1;
#X connect 8 0 7 1;
#X connect 9 0 10 0;
#X connect 10 0 8 1;
#X connect 11 0 3 0;
#X connect 12 0 5 0;
#X connect 13 0 4 0;
