#N canvas 652 152 497 479 10;
#X text 30 23 try doing dynamic sends and receives;
#X msg 50 66 set one;
#X msg 62 88 set two;
#N canvas 326 22 450 300 one 1;
#X obj 154 187 throw~ one;
#X obj 110 118 osc~ 440;
#X obj 240 105 inlet;
#X text 237 80 set one/two messages;
#X connect 1 0 0 0;
#X connect 2 0 0 0;
#X restore 50 140 pd one;
#X obj 154 260 catch~ one;
#N canvas 867 22 450 300 two 1;
#X obj 150 101 osc~ 550;
#X obj 157 175 throw~ one;
#X connect 0 0 1 0;
#X restore 215 133 pd two;
#X obj 154 335 dac~;
#X connect 1 0 3 0;
#X connect 2 0 3 0;
#X connect 4 0 6 0;
#X connect 4 0 6 1;
