#N canvas 323 171 555 544 10;
#X text 28 31 lfo object;
#X obj 30 114 inlet;
#X text 32 79 frequency \, connection_target;
#X obj 177 107 inlet;
#X msg 179 274 set \$1;
#X text 212 216 alternative method for setting target;
#X obj 213 236 receive lfo-target;
#X obj 128 376 throw~ devnull;
#X obj 48 242 osc~ 0.5;
#X connect 1 0 8 0;
#X connect 3 0 4 0;
#X connect 4 0 7 0;
#X connect 6 0 4 0;
#X connect 8 0 7 0;
