#N canvas 227 231 555 544 10;
#X text 28 31 lfo object;
#X obj 30 114 inlet;
#X text 32 79 frequency \, connection_target;
#X msg 179 274 set \$1;
#X obj 181 236 receive lfo-target;
#X obj 128 376 throw~ devnull;
#X obj 48 242 osc~ 0.5;
#X connect 1 0 6 0;
#X connect 3 0 5 0;
#X connect 4 0 3 0;
#X connect 6 0 5 0;
