#N canvas 724 198 555 544 10;
#X text 28 31 lfo object;
#X obj 30 114 inlet;
#X obj 181 236 receive lfo-target;
#X obj 128 376 throw~ devnull;
#X obj 182 273 ir_targetselect;
#X text 32 79 frequency \, amplitude \, connection_target;
#X obj 100 113 inlet;
#X obj 82 303 *~;
#X obj 48 242 osc~ 0.5;
#X obj 115 246 sig~ 50;
#X connect 1 0 8 0;
#X connect 2 0 4 0;
#X connect 4 0 3 0;
#X connect 6 0 9 0;
#X connect 7 0 3 0;
#X connect 8 0 7 0;
#X connect 9 0 7 1;
