#N canvas 227 231 555 544 10;
#X text 28 31 lfo object;
#X obj 30 114 inlet;
#X text 32 79 frequency \, connection_target;
#X obj 181 236 receive lfo-target;
#X obj 128 376 throw~ devnull;
#X obj 48 242 osc~ 0.5;
#X obj 182 273 ir_targetselect;
#X connect 1 0 5 0;
#X connect 3 0 6 0;
#X connect 5 0 4 0;
#X connect 6 0 4 0;
