#N canvas 328 267 521 489 10;
#X text 32 17 squarewave object;
#X obj 173 373 *~;
#X obj 287 429 throw~ devnull;
#X obj 287 361 receive squarewave-target;
#X obj 210 101 inlet;
#X obj 237 301 sig~ 1;
#X obj 149 101 inlet;
#X obj 31 164 catch~ squarewave;
#X obj 288 393 ir_targetselect;
#X obj 140 299 ir_pwm~ 110 50;
#X obj 236 217 clip 0 1;
#X obj 137 262 mtof~;
#X obj 149 123 * 24;
#X obj 149 147 + 33;
#X text 150 77 note \, amplitude;
#X obj 136 220 +~ 45;
#X floatatom 177 221 5 0 0 0 - - -;
#X floatatom 300 219 5 0 0 0 - - -;
#X obj 31 188 *~ 20;
#X connect 1 0 2 0;
#X connect 3 0 8 0;
#X connect 4 0 10 0;
#X connect 4 0 17 0;
#X connect 5 0 1 1;
#X connect 6 0 12 0;
#X connect 7 0 18 0;
#X connect 8 0 2 0;
#X connect 9 0 1 0;
#X connect 10 0 5 0;
#X connect 11 0 9 0;
#X connect 12 0 13 0;
#X connect 13 0 15 1;
#X connect 13 0 16 0;
#X connect 15 0 11 0;
#X connect 18 0 15 0;
