#N canvas 167 225 521 489 10;
#X text 29 21 squarewave object;
#X obj 188 98 inlet;
#X text 36 72 frequency \, amplitude \, connection_target;
#X obj 44 312 pwm~ 440 50;
#X obj 74 368 *~;
#X obj 188 424 throw~ devnull;
#X msg 191 359 set \$1;
#X obj 225 321 receive squarewave-target;
#X text 224 301 alternative method for setting target;
#X obj 111 96 inlet;
#X obj 123 314 sig~ 1;
#X obj 55 207 snapshot~;
#X obj 75 170 metro 100;
#X text 137 170 TODO: fix pwm~ to take signal input;
#X obj 40 95 inlet;
#X obj 41 255 + 0;
#X obj 54 131 catch~ squarewave;
#X connect 1 0 6 0;
#X connect 3 0 4 0;
#X connect 4 0 5 0;
#X connect 6 0 5 0;
#X connect 7 0 6 0;
#X connect 9 0 10 0;
#X connect 10 0 4 1;
#X connect 11 0 15 1;
#X connect 12 0 11 0;
#X connect 14 0 15 0;
#X connect 15 0 3 0;
#X connect 16 0 11 0;
