#N canvas 117 291 521 489 10;
#X text 128 26 squarewave object;
#X text 135 77 frequency \, amplitude \, connection_target;
#X obj 173 373 *~;
#X obj 287 429 throw~ devnull;
#X obj 287 361 receive squarewave-target;
#X obj 210 101 inlet;
#X obj 237 301 sig~ 1;
#X obj 139 100 inlet;
#X obj 31 164 catch~ squarewave;
#X obj 288 393 ir_targetselect;
#X obj 140 299 ir_pwm~ 440 50;
#X obj 140 260 +~ 440;
#X connect 2 0 3 0;
#X connect 4 0 9 0;
#X connect 5 0 6 0;
#X connect 6 0 2 1;
#X connect 7 0 11 1;
#X connect 8 0 11 0;
#X connect 9 0 3 0;
#X connect 10 0 2 0;
#X connect 11 0 10 0;
