#N canvas 801 246 521 489 10;
#X text 29 21 squarewave object;
#X text 36 72 frequency \, amplitude \, connection_target;
#X obj 44 312 pwm~ 440 50;
#X obj 74 368 *~;
#X obj 188 424 throw~ devnull;
#X obj 188 356 receive squarewave-target;
#X obj 111 96 inlet;
#X obj 123 314 sig~ 1;
#X obj 55 207 snapshot~;
#X obj 75 170 metro 100;
#X text 137 170 TODO: fix pwm~ to take signal input;
#X obj 40 95 inlet;
#X obj 41 255 + 0;
#X obj 74 150 loadbang;
#X obj 54 121 catch~ squarewave;
#X text 221 331;
#X msg 188 389 set \$0;
#X connect 2 0 3 0;
#X connect 3 0 4 0;
#X connect 5 0 16 0;
#X connect 6 0 7 0;
#X connect 7 0 3 1;
#X connect 8 0 12 1;
#X connect 9 0 8 0;
#X connect 11 0 12 0;
#X connect 12 0 2 0;
#X connect 13 0 9 0;
#X connect 14 0 8 0;
#X connect 16 0 4 0;
