#N canvas 237 220 552 562 10;
#X obj 259 67 inlet;
#X obj 243 477 throw~ devnull;
#X text 21 21 vcf object;
#X obj 317 276 sig~ 0;
#X obj 321 217 * -1;
#X obj 320 244 + 1;
#X obj 185 347 *~;
#X obj 178 403 +~;
#X text 251 27 0.9 = 90% wet;
#X obj 152 234 +~;
#X obj 150 163 sig~ 0;
#X obj 260 399 receive vcf-target;
#X obj 28 232 catch~ vcf-signal;
#X obj 149 70 inlet;
#X obj 194 98 catch~ vcf-control;
#X obj 257 433 ir_targetselect;
#X obj 124 271 vcf~ 100 20;
#X obj 150 140 mtof;
#X text 145 45 center_frequency \, wet/dry;
#X obj 149 96 * 50;
#X obj 150 120 + 50;
#X obj 195 174 mtof~;
#X obj 195 150 *~ 125;
#X text 300 197 dry disabled for demo;
#X obj 136 348 *~ 60;
#X floatatom 239 271 5 0 0 0 - - -;
#X connect 3 0 6 1;
#X connect 4 0 5 0;
#X connect 5 0 3 0;
#X connect 6 0 7 1;
#X connect 7 0 1 0;
#X connect 9 0 16 1;
#X connect 10 0 9 0;
#X connect 11 0 15 0;
#X connect 12 0 6 0;
#X connect 12 0 16 0;
#X connect 13 0 19 0;
#X connect 14 0 22 0;
#X connect 15 0 1 0;
#X connect 16 0 24 0;
#X connect 17 0 10 0;
#X connect 19 0 20 0;
#X connect 20 0 17 0;
#X connect 21 0 9 1;
#X connect 22 0 21 0;
#X connect 24 0 7 0;
#X connect 25 0 24 1;
