#N canvas 237 220 552 562 10;
#X obj 186 135 inlet;
#X obj 174 471 throw~ devnull;
#X text 21 21 vcf object;
#X obj 67 342 *~;
#X obj 127 304 sig~ 1;
#X obj 178 304 sig~ 0;
#X obj 182 245 * -1;
#X obj 181 272 + 1;
#X obj 116 341 *~;
#X obj 109 397 +~;
#X text 182 52 0.9 = 90% wet;
#X obj 83 228 +~;
#X obj 81 157 sig~ 0;
#X obj 191 393 receive vcf-target;
#X obj 42 91 catch~ vcf-signal;
#X obj 80 110 inlet;
#X obj 104 179 catch~ vcf-control;
#X obj 188 427 ir_targetselect;
#X text 28 72 signal \, center_frequency \, wet/dry \, connection_target
;
#X obj 55 265 vcf~ 100 20;
#X obj 79 132 mtof;
#X obj 103 201 mtof~;
#X connect 0 0 4 0;
#X connect 0 0 6 0;
#X connect 3 0 9 0;
#X connect 4 0 3 1;
#X connect 5 0 8 1;
#X connect 6 0 7 0;
#X connect 7 0 5 0;
#X connect 8 0 9 1;
#X connect 9 0 1 0;
#X connect 11 0 19 1;
#X connect 12 0 11 0;
#X connect 13 0 17 0;
#X connect 14 0 8 0;
#X connect 14 0 19 0;
#X connect 15 0 20 0;
#X connect 16 0 21 0;
#X connect 17 0 1 0;
#X connect 19 0 3 0;
#X connect 20 0 12 0;
#X connect 21 0 11 1;
