#N canvas 798 156 552 562 10;
#X obj 193 96 inlet;
#X obj 251 100 inlet;
#X obj 181 432 throw~ devnull;
#X msg 253 267 set \$1;
#X text 286 209 alternative method for setting target;
#X text 29 21 vcf object;
#X obj 62 226 vcf~ 100 10;
#X obj 38 94 inlet~;
#X text 36 72 signal \, center_frequency \, wet/dry \, connection_target
;
#X obj 74 303 *~;
#X obj 134 265 sig~ 1;
#X obj 185 265 sig~ 0;
#X obj 189 206 * -1;
#X obj 188 233 + 1;
#X obj 123 302 *~;
#X obj 116 358 +~;
#X text 190 52 0.9 = 90% wet;
#X obj 88 91 inlet;
#X obj 111 140 catch~ vcf;
#X obj 90 168 +~;
#X obj 88 118 sig~ 0;
#X obj 287 229 receive vcf-target;
#X connect 0 0 10 0;
#X connect 0 0 12 0;
#X connect 1 0 3 0;
#X connect 3 0 2 0;
#X connect 6 0 9 0;
#X connect 7 0 6 0;
#X connect 7 0 14 0;
#X connect 9 0 15 0;
#X connect 10 0 9 1;
#X connect 11 0 14 1;
#X connect 12 0 13 0;
#X connect 13 0 11 0;
#X connect 14 0 15 1;
#X connect 15 0 2 0;
#X connect 17 0 20 0;
#X connect 18 0 19 1;
#X connect 19 0 6 1;
#X connect 20 0 19 0;
#X connect 21 0 3 0;
