#N canvas 411 165 590 487 10;
#X obj 58 266 ir_squarewave~;
#X obj 392 363 catch~ devnull;
#X obj 216 373 ir_sink~;
#X obj 243 270 ir_vcf~;
#X obj 420 261 ir_lfo~;
#X text 390 382 goes nowhere;
#N canvas 191 144 745 475 oscrouting 1;
#X text 21 21 receives and prints OSC messages from the iPhone simulator
;
#X obj 40 148 OSCroute /ireactable;
#X obj 158 170 print other;
#X obj 40 198 OSCroute /connect;
#X obj 40 265 route squarewave vcf lfo;
#X obj 40 115 dumpOSC 7000;
#X obj 37 417 send squarewave-target;
#X obj 274 237 OSCroute /squarewave /vcf /lfo;
#X obj 88 373 send vcf-target;
#X obj 132 330 send lfo-target;
#X obj 273 387 send squarewave-params;
#X obj 336 339 send vcf-params;
#X obj 388 290 send lfo-params;
#X msg 274 57 /ireactable/connect squarewave vcf-signal;
#X msg 274 84 /ireactable/connect vcf sink;
#X msg 274 111 /ireactable/connect lfo squarewave;
#X connect 1 0 3 0;
#X connect 1 1 2 0;
#X connect 3 0 4 0;
#X connect 3 1 7 0;
#X connect 4 0 6 0;
#X connect 4 1 8 0;
#X connect 4 2 9 0;
#X connect 5 0 1 0;
#X connect 7 0 10 0;
#X connect 7 1 11 0;
#X connect 7 2 12 0;
#X connect 13 0 1 0;
#X connect 14 0 1 0;
#X connect 15 0 1 0;
#X restore 59 83 pd oscrouting;
#X obj 56 180 receive squarewave-params;
#X obj 57 224 unpack f f;
#X obj 48 378 bng 15 250 50 0 empty empty empty 17 7 0 10 -262144 -1
-1;
#N canvas 490 22 450 300 resetall 0;
#X obj 31 193 send squarewave-target;
#X obj 82 149 send vcf-target;
#X obj 126 106 send lfo-target;
#X msg 32 70 devnull;
#X obj 32 9 inlet;
#X msg 266 89 \; squarewave-params 440 0.8 \; vcf-params 330 0.9 \;
lfo-params 5 50;
#X connect 3 0 0 0;
#X connect 3 0 1 0;
#X connect 3 0 2 0;
#X connect 4 0 3 0;
#X connect 4 0 5 0;
#X restore 48 408 pd resetall;
#X text 65 377 reset;
#X obj 241 227 unpack f f;
#X obj 240 181 receive vcf-params;
#X obj 420 180 receive lfo-params;
#X obj 420 224 unpack f f;
#X connect 7 0 8 0;
#X connect 8 0 0 0;
#X connect 8 1 0 1;
#X connect 9 0 10 0;
#X connect 12 0 3 0;
#X connect 12 1 3 1;
#X connect 13 0 12 0;
#X connect 14 0 15 0;
#X connect 15 0 4 0;
#X connect 15 1 4 1;
