#N canvas 158 217 590 487 10;
#X obj 58 266 ir_squarewave~;
#X obj 392 363 catch~ devnull;
#X obj 216 373 ir_sink~;
#X obj 243 270 ir_vcf~;
#X obj 420 261 ir_lfo~;
#X text 390 382 goes nowhere;
#N canvas 191 144 745 475 oscrouting 0;
#X text 21 21 receives and prints OSC messages from the iPhone simulator
;
#X obj 40 148 OSCroute /ireactable;
#X obj 40 198 OSCroute /connect;
#X obj 40 265 route squarewave vcf lfo;
#X obj 40 53 dumpOSC 7000;
#X obj 37 417 send squarewave-target;
#X obj 274 237 OSCroute /squarewave /vcf /lfo;
#X obj 88 373 send vcf-target;
#X obj 132 330 send lfo-target;
#X obj 273 387 send squarewave-params;
#X obj 336 339 send vcf-params;
#X obj 388 290 send lfo-params;
#X msg 274 57 /ireactable/connect squarewave vcf-signal;
#X msg 274 84 /ireactable/connect vcf sink;
#X msg 274 111 /ireactable/connect lfo vcf-control;
#X msg 274 135 /ireactable/connect lfo squarewave;
#X obj 55 80 print osc;
#X obj 158 170 print osc-other;
#X connect 1 0 2 0;
#X connect 1 1 17 0;
#X connect 2 0 3 0;
#X connect 2 1 6 0;
#X connect 3 0 5 0;
#X connect 3 1 7 0;
#X connect 3 2 8 0;
#X connect 4 0 1 0;
#X connect 4 0 16 0;
#X connect 6 0 9 0;
#X connect 6 1 10 0;
#X connect 6 2 11 0;
#X connect 12 0 1 0;
#X connect 13 0 1 0;
#X connect 14 0 1 0;
#X connect 15 0 1 0;
#X restore 59 83 pd oscrouting;
#X obj 56 180 receive squarewave-params;
#X obj 57 224 unpack f f;
#X obj 48 378 bng 15 250 50 0 empty empty empty 17 7 0 10 -262144 -1
-1;
#N canvas 252 22 450 300 resetall 0;
#X obj 31 193 send squarewave-target;
#X obj 82 149 send vcf-target;
#X obj 126 106 send lfo-target;
#X msg 32 70 devnull;
#X obj 32 9 inlet;
#X msg 261 164 \; squarewave-params 110 0.8 \; vcf-params 80 0.95 \;
lfo-params 3 60;
#X msg 266 89 \; squarewave-params 0.5 0.5 \; vcf-params 0.5 0.5 \;
lfo-params 0.5 0.5;
#X connect 3 0 0 0;
#X connect 3 0 1 0;
#X connect 3 0 2 0;
#X connect 4 0 3 0;
#X connect 4 0 6 0;
#X restore 48 408 pd resetall;
#X text 65 377 reset;
#X obj 241 227 unpack f f;
#X obj 240 181 receive vcf-params;
#X obj 420 180 receive lfo-params;
#X obj 420 224 unpack f f;
#N canvas 633 22 586 409 tester 1;
#X msg 38 21 \; squarewave-target devnull;
#X msg 38 54 \; squarewave-target sink;
#X msg 232 24 \; vcf-target devnull;
#X msg 233 61 \; vcf-target sink;
#X msg 394 26 \; lfo-target devnull;
#X obj 34 322 pack f f;
#X obj 79 294 t b f;
#X obj 34 135 vsl 15 128 0 1 0 0 empty sliders empty 0 -9 0 10 -262144
-1 -1 6350 1;
#X floatatom 34 276 5 0 0 0 - - -;
#X floatatom 78 272 5 0 0 0 - - -;
#X obj 77 132 vsl 15 128 0 1 0 0 empty sliders empty 0 -9 0 10 -262144
-1 -1 6350 1;
#X msg 469 213 \; sliders 0.5;
#X obj 34 350 s squarewave-params;
#X obj 179 320 pack f f;
#X obj 224 292 t b f;
#X obj 179 133 vsl 15 128 0 1 0 0 empty sliders empty 0 -9 0 10 -262144
-1 -1 6350 1;
#X floatatom 179 274 5 0 0 0 - - -;
#X floatatom 223 270 5 0 0 0 - - -;
#X obj 222 130 vsl 15 128 0 1 0 0 empty sliders empty 0 -9 0 10 -262144
-1 -1 6350 1;
#X obj 179 348 s vcf-params;
#X obj 312 319 pack f f;
#X obj 357 291 t b f;
#X obj 312 132 vsl 15 128 0 1 0 0 empty sliders empty 0 -9 0 10 -262144
-1 -1 6350 1;
#X floatatom 312 273 5 0 0 0 - - -;
#X floatatom 356 269 5 0 0 0 - - -;
#X obj 355 129 vsl 15 128 0 1 0 0 empty sliders empty 0 -9 0 10 -262144
-1 -1 6350 1;
#X obj 312 347 s lfo-params;
#X obj 467 182 loadbang;
#X msg 395 98 \; lfo-target squarewave;
#X msg 395 62 \; lfo-target vcf-control;
#X msg 38 88 \; squarewave-target vcf-signal;
#X connect 5 0 12 0;
#X connect 6 0 5 0;
#X connect 6 1 5 1;
#X connect 7 0 8 0;
#X connect 8 0 5 0;
#X connect 9 0 6 0;
#X connect 10 0 9 0;
#X connect 13 0 19 0;
#X connect 14 0 13 0;
#X connect 14 1 13 1;
#X connect 15 0 16 0;
#X connect 16 0 13 0;
#X connect 17 0 14 0;
#X connect 18 0 17 0;
#X connect 20 0 26 0;
#X connect 21 0 20 0;
#X connect 21 1 20 1;
#X connect 22 0 23 0;
#X connect 23 0 20 0;
#X connect 24 0 21 0;
#X connect 25 0 24 0;
#X connect 27 0 11 0;
#X restore 360 86 pd tester;
#X connect 7 0 8 0;
#X connect 8 0 0 0;
#X connect 8 1 0 1;
#X connect 9 0 10 0;
#X connect 12 0 3 0;
#X connect 12 1 3 1;
#X connect 13 0 12 0;
#X connect 14 0 15 0;
#X connect 15 0 4 0;
#X connect 15 1 4 1;
