#N canvas 812 124 516 428 10;
#X obj 49 68 dumpOSC 7000;
#X text 21 21 receives and prints OSC messages from the iPhone simulator
;
#X obj 49 101 OSCroute /ireactable;
#X obj 167 123 print other;
#X obj 49 151 OSCroute /connect;
#X obj 201 191 OSCroute /squarewave /vcf /signal;
#X obj 49 218 route squarewave vcf lfo;
#X obj 49 266 print connectsquarewaveto;
#X msg 175 63 /ireactable/connect squarewave vcf-signal;
#X connect 0 0 2 0;
#X connect 2 0 4 0;
#X connect 2 1 3 0;
#X connect 4 0 6 0;
#X connect 4 1 5 0;
#X connect 6 0 7 0;
#X connect 8 0 2 0;
