#N canvas 775 56 462 428 10;
#X obj 60 348 dac~;
#X obj 78 225 sig~ 44;
#X obj 59 160 ir_pwm~ 440 50;
#X obj 61 255 vcf~ 20;
#X floatatom 55 61 5 0 0 0 - - -;
#X obj 58 92 mtof;
#X obj 60 122 sig~ 440;
#X obj 78 200 mtof;
#X floatatom 79 179 5 0 0 0 - - -;
#X connect 1 0 3 1;
#X connect 2 0 3 0;
#X connect 3 0 0 0;
#X connect 3 0 0 1;
#X connect 4 0 5 0;
#X connect 5 0 6 0;
#X connect 6 0 2 0;
#X connect 7 0 1 0;
#X connect 8 0 7 0;
